<svg xmlns="http://www.w3.org/2000/svg" width="1200" height="630" viewBox="0 0 1200 630" role="img" aria-labelledby="t d"><title id="t">HTML Email Template repository thumbnail</title><desc id="d">A responsive campaign email shown across desktop and mobile previews.</desc><rect width="1200" height="630" fill="#edf2f8"/><g transform="translate(62 70)"><text fill="#2563eb" font-family="Arial" font-size="15" font-weight="900" letter-spacing="5">RESPONSIVE HTML EMAILS</text><text y="88" fill="#172033" font-family="Arial" font-size="68" font-weight="900">Email Template Lab</text><text y="138" fill="#526070" font-family="Arial" font-size="22">Campaigns, newsletters, and transactional layouts.</text><rect y="198" width="455" height="300" rx="22" fill="#fff" stroke="#cbd7e6"/><rect x="24" y="222" width="407" height="60" rx="12" fill="#172033"/><text x="48" y="258" fill="#fff" font-family="Arial" font-size="19" font-weight="900">A clearer campaign starts here.</text><rect x="24" y="304" width="407" height="88" rx="12" fill="#dbeafe"/><rect x="24" y="414" width="170" height="48" rx="24" fill="#2563eb"/><text x="109" y="444" text-anchor="middle" fill="#fff" font-family="Arial" font-size="14" font-weight="900">OPEN CAMPAIGN</text></g><g transform="translate(650 58)"><rect width="430" height="520" rx="30" fill="#fff" stroke="#cbd7e6"/><rect x="30" y="28" width="370" height="58" rx="12" fill="#172033"/><text x="215" y="64" text-anchor="middle" fill="#fff" font-family="Arial" font-size="16" font-weight="900">NEWSLETTER / 01</text><rect x="30" y="110" width="370" height="190" rx="14" fill="#fbbf24"/><circle cx="215" cy="205" r="58" fill="#fff" opacity=".65"/><text x="30" y="342" fill="#172033" font-family="Arial" font-size="28" font-weight="900">Designed for inboxes,</text><text x="30" y="376" fill="#172033" font-family="Arial" font-size="28" font-weight="900">not only browsers.</text><rect x="30" y="410" width="370" height="18" rx="9" fill="#e5e7eb"/><rect x="30" y="442" width="300" height="18" rx="9" fill="#e5e7eb"/><rect x="30" y="476" width="160" height="34" rx="17" fill="#2563eb"/></g><text x="1124" y="606" text-anchor="end" fill="#657386" font-family="Arial" font-size="12" font-weight="800" letter-spacing="3">NISCHHALSUBBA / EMAIL-TEMPLATE</text></svg>